<mxfile host="app.diagrams.net" modified="2024-03-07T13:17:07.647Z" agent="Mozilla/5.0 (X11; Linux x86_64) AppleWebKit/537.36 (KHTML, like Gecko) Chrome/114.0.0.0 Safari/537.36" etag="c17epairAa8fmpHebEn-" version="24.0.1" type="github">
  <diagram id="prtHgNgQTEPvFCAcTncT" name="Page-1">
    <mxGraphModel dx="2145" dy="2197" grid="0" gridSize="15" guides="1" tooltips="1" connect="1" arrows="1" fold="1" page="1" pageScale="1" pageWidth="827" pageHeight="1169" math="0" shadow="1">
      <root>
        <mxCell id="0" />
        <mxCell id="1" parent="0" />
        <mxCell id="mm9sd67sM0A_G5Sb0UkS-9" style="edgeStyle=orthogonalEdgeStyle;rounded=0;orthogonalLoop=1;jettySize=auto;html=1;exitX=1;exitY=0.5;exitDx=0;exitDy=0;entryX=0;entryY=0.5;entryDx=0;entryDy=0;fontSize=18;" parent="1" edge="1">
          <mxGeometry relative="1" as="geometry">
            <mxPoint x="104" y="1" as="sourcePoint" />
            <mxPoint x="174" y="1" as="targetPoint" />
          </mxGeometry>
        </mxCell>
        <mxCell id="mm9sd67sM0A_G5Sb0UkS-32" value="e" style="text;html=1;align=center;verticalAlign=middle;resizable=0;points=[];autosize=1;strokeColor=none;fillColor=none;fontSize=18;" parent="1" vertex="1">
          <mxGeometry x="523" y="-136" width="45" height="45" as="geometry" />
        </mxCell>
        <mxCell id="ZKPFellzhZSUirDBcYEt-5" value="" style="group" vertex="1" connectable="0" parent="1">
          <mxGeometry x="574" y="-128" width="80" height="80" as="geometry" />
        </mxCell>
        <mxCell id="mm9sd67sM0A_G5Sb0UkS-35" value="" style="ellipse;whiteSpace=wrap;html=1;aspect=fixed;hachureGap=4;fillColor=#dae8fc;strokeColor=#6c8ebf;rounded=0;fontSize=18;" parent="ZKPFellzhZSUirDBcYEt-5" vertex="1">
          <mxGeometry width="80" height="80" as="geometry" />
        </mxCell>
        <mxCell id="mm9sd67sM0A_G5Sb0UkS-36" value="" style="ellipse;whiteSpace=wrap;html=1;aspect=fixed;hachureGap=4;rounded=0;fontSize=18;" parent="ZKPFellzhZSUirDBcYEt-5" vertex="1">
          <mxGeometry x="15" y="15" width="50" height="50" as="geometry" />
        </mxCell>
        <mxCell id="ZKPFellzhZSUirDBcYEt-6" value="" style="group" vertex="1" connectable="0" parent="1">
          <mxGeometry x="134" y="-126" width="80" height="80" as="geometry" />
        </mxCell>
        <mxCell id="ZKPFellzhZSUirDBcYEt-7" value="" style="ellipse;whiteSpace=wrap;html=1;aspect=fixed;hachureGap=4;fillColor=#dae8fc;strokeColor=#6c8ebf;rounded=0;fontSize=18;" vertex="1" parent="ZKPFellzhZSUirDBcYEt-6">
          <mxGeometry width="80" height="80" as="geometry" />
        </mxCell>
        <mxCell id="ZKPFellzhZSUirDBcYEt-8" value="Za" style="ellipse;whiteSpace=wrap;html=1;aspect=fixed;hachureGap=4;rounded=0;fontSize=18;" vertex="1" parent="ZKPFellzhZSUirDBcYEt-6">
          <mxGeometry x="15" y="15" width="50" height="50" as="geometry" />
        </mxCell>
        <mxCell id="ZKPFellzhZSUirDBcYEt-13" style="edgeStyle=orthogonalEdgeStyle;rounded=0;orthogonalLoop=1;jettySize=auto;html=1;exitX=0;exitY=0.5;exitDx=0;exitDy=0;entryX=1;entryY=0.5;entryDx=0;entryDy=0;fontFamily=Helvetica;fontSize=18;fontColor=default;" edge="1" parent="1" source="mm9sd67sM0A_G5Sb0UkS-25" target="ZKPFellzhZSUirDBcYEt-7">
          <mxGeometry relative="1" as="geometry" />
        </mxCell>
        <mxCell id="ZKPFellzhZSUirDBcYEt-22" style="edgeStyle=orthogonalEdgeStyle;rounded=0;orthogonalLoop=1;jettySize=auto;html=1;exitX=0.5;exitY=1;exitDx=0;exitDy=0;entryX=0.5;entryY=0;entryDx=0;entryDy=0;fontFamily=Helvetica;fontSize=18;fontColor=default;" edge="1" parent="1" source="mm9sd67sM0A_G5Sb0UkS-25" target="ZKPFellzhZSUirDBcYEt-18">
          <mxGeometry relative="1" as="geometry" />
        </mxCell>
        <mxCell id="mm9sd67sM0A_G5Sb0UkS-25" value="Fa" style="ellipse;whiteSpace=wrap;html=1;aspect=fixed;hachureGap=4;fillColor=#dae8fc;strokeColor=#6c8ebf;rounded=0;fontSize=18;" parent="1" vertex="1">
          <mxGeometry x="288" y="-126" width="80" height="80" as="geometry" />
        </mxCell>
        <mxCell id="ZKPFellzhZSUirDBcYEt-9" style="edgeStyle=orthogonalEdgeStyle;rounded=0;orthogonalLoop=1;jettySize=auto;html=1;exitX=0.5;exitY=0;exitDx=0;exitDy=0;entryX=0.5;entryY=0;entryDx=0;entryDy=0;" edge="1" parent="1" source="ZKPFellzhZSUirDBcYEt-7" target="mm9sd67sM0A_G5Sb0UkS-25">
          <mxGeometry relative="1" as="geometry" />
        </mxCell>
        <mxCell id="ZKPFellzhZSUirDBcYEt-11" value="a" style="text;html=1;align=center;verticalAlign=middle;resizable=0;points=[];autosize=1;strokeColor=none;fillColor=none;fontSize=18;" vertex="1" parent="1">
          <mxGeometry x="225" y="-186" width="28" height="34" as="geometry" />
        </mxCell>
        <mxCell id="ZKPFellzhZSUirDBcYEt-14" value="a" style="text;html=1;align=center;verticalAlign=middle;resizable=0;points=[];autosize=1;strokeColor=none;fillColor=none;fontFamily=Helvetica;fontSize=18;fontColor=default;" vertex="1" parent="1">
          <mxGeometry x="240" y="-126" width="28" height="34" as="geometry" />
        </mxCell>
        <mxCell id="ZKPFellzhZSUirDBcYEt-26" style="edgeStyle=orthogonalEdgeStyle;rounded=0;orthogonalLoop=1;jettySize=auto;html=1;exitX=0.5;exitY=1;exitDx=0;exitDy=0;entryX=0.5;entryY=1;entryDx=0;entryDy=0;fontFamily=Helvetica;fontSize=18;fontColor=default;" edge="1" parent="1" source="ZKPFellzhZSUirDBcYEt-15" target="ZKPFellzhZSUirDBcYEt-18">
          <mxGeometry relative="1" as="geometry">
            <Array as="points">
              <mxPoint x="174" y="138" />
              <mxPoint x="328" y="138" />
            </Array>
          </mxGeometry>
        </mxCell>
        <mxCell id="ZKPFellzhZSUirDBcYEt-30" style="edgeStyle=orthogonalEdgeStyle;rounded=0;orthogonalLoop=1;jettySize=auto;html=1;entryX=0;entryY=0.5;entryDx=0;entryDy=0;fontFamily=Helvetica;fontSize=18;fontColor=default;" edge="1" parent="1" source="ZKPFellzhZSUirDBcYEt-15" target="ZKPFellzhZSUirDBcYEt-28">
          <mxGeometry relative="1" as="geometry">
            <Array as="points">
              <mxPoint x="142" y="143" />
              <mxPoint x="142" y="347" />
            </Array>
          </mxGeometry>
        </mxCell>
        <mxCell id="ZKPFellzhZSUirDBcYEt-15" value="Fb" style="ellipse;whiteSpace=wrap;html=1;aspect=fixed;hachureGap=4;fillColor=#dae8fc;strokeColor=#6c8ebf;rounded=0;fontSize=18;" vertex="1" parent="1">
          <mxGeometry x="134" y="14" width="80" height="80" as="geometry" />
        </mxCell>
        <mxCell id="ZKPFellzhZSUirDBcYEt-17" value="" style="group" vertex="1" connectable="0" parent="1">
          <mxGeometry x="288" y="14" width="80" height="80" as="geometry" />
        </mxCell>
        <mxCell id="ZKPFellzhZSUirDBcYEt-18" value="" style="ellipse;whiteSpace=wrap;html=1;aspect=fixed;hachureGap=4;fillColor=#dae8fc;strokeColor=#6c8ebf;rounded=0;fontSize=18;" vertex="1" parent="ZKPFellzhZSUirDBcYEt-17">
          <mxGeometry width="80" height="80" as="geometry" />
        </mxCell>
        <mxCell id="ZKPFellzhZSUirDBcYEt-19" value="Zb" style="ellipse;whiteSpace=wrap;html=1;aspect=fixed;hachureGap=4;rounded=0;fontSize=18;" vertex="1" parent="ZKPFellzhZSUirDBcYEt-17">
          <mxGeometry x="15" y="15" width="50" height="50" as="geometry" />
        </mxCell>
        <mxCell id="ZKPFellzhZSUirDBcYEt-20" style="edgeStyle=orthogonalEdgeStyle;rounded=0;orthogonalLoop=1;jettySize=auto;html=1;exitX=0.5;exitY=1;exitDx=0;exitDy=0;entryX=0.5;entryY=0;entryDx=0;entryDy=0;fontFamily=Helvetica;fontSize=18;fontColor=default;" edge="1" parent="1" source="ZKPFellzhZSUirDBcYEt-7" target="ZKPFellzhZSUirDBcYEt-15">
          <mxGeometry relative="1" as="geometry" />
        </mxCell>
        <mxCell id="ZKPFellzhZSUirDBcYEt-21" value="b" style="text;html=1;align=center;verticalAlign=middle;resizable=0;points=[];autosize=1;strokeColor=none;fillColor=none;fontFamily=Helvetica;fontSize=18;fontColor=default;" vertex="1" parent="1">
          <mxGeometry x="125" y="-30" width="28" height="34" as="geometry" />
        </mxCell>
        <mxCell id="ZKPFellzhZSUirDBcYEt-23" value="b" style="text;html=1;align=center;verticalAlign=middle;resizable=0;points=[];autosize=1;strokeColor=none;fillColor=none;fontFamily=Helvetica;fontSize=18;fontColor=default;" vertex="1" parent="1">
          <mxGeometry x="343" y="-22" width="28" height="34" as="geometry" />
        </mxCell>
        <mxCell id="ZKPFellzhZSUirDBcYEt-24" style="edgeStyle=orthogonalEdgeStyle;rounded=0;orthogonalLoop=1;jettySize=auto;html=1;exitX=0;exitY=0.5;exitDx=0;exitDy=0;entryX=1;entryY=0.5;entryDx=0;entryDy=0;fontFamily=Helvetica;fontSize=18;fontColor=default;" edge="1" parent="1" source="ZKPFellzhZSUirDBcYEt-18" target="ZKPFellzhZSUirDBcYEt-15">
          <mxGeometry relative="1" as="geometry" />
        </mxCell>
        <mxCell id="ZKPFellzhZSUirDBcYEt-25" value="b" style="text;html=1;align=center;verticalAlign=middle;resizable=0;points=[];autosize=1;strokeColor=none;fillColor=none;fontFamily=Helvetica;fontSize=18;fontColor=default;" vertex="1" parent="1">
          <mxGeometry x="247" y="62" width="28" height="34" as="geometry" />
        </mxCell>
        <mxCell id="ZKPFellzhZSUirDBcYEt-27" value="b" style="text;html=1;align=center;verticalAlign=middle;resizable=0;points=[];autosize=1;strokeColor=none;fillColor=none;fontFamily=Helvetica;fontSize=18;fontColor=default;" vertex="1" parent="1">
          <mxGeometry x="217" y="149" width="28" height="34" as="geometry" />
        </mxCell>
        <mxCell id="ZKPFellzhZSUirDBcYEt-28" value="Trap" style="ellipse;whiteSpace=wrap;html=1;aspect=fixed;hachureGap=4;fillColor=#dae8fc;strokeColor=#6c8ebf;rounded=0;fontSize=18;" vertex="1" parent="1">
          <mxGeometry x="199" y="218" width="80" height="80" as="geometry" />
        </mxCell>
        <mxCell id="ZKPFellzhZSUirDBcYEt-29" style="edgeStyle=orthogonalEdgeStyle;rounded=0;orthogonalLoop=1;jettySize=auto;html=1;exitX=1;exitY=0.5;exitDx=0;exitDy=0;entryX=1;entryY=0.5;entryDx=0;entryDy=0;fontFamily=Helvetica;fontSize=18;fontColor=default;" edge="1" parent="1" source="ZKPFellzhZSUirDBcYEt-18" target="ZKPFellzhZSUirDBcYEt-28">
          <mxGeometry relative="1" as="geometry" />
        </mxCell>
        <mxCell id="ZKPFellzhZSUirDBcYEt-31" value="a" style="text;html=1;align=center;verticalAlign=middle;resizable=0;points=[];autosize=1;strokeColor=none;fillColor=none;fontFamily=Helvetica;fontSize=18;fontColor=default;" vertex="1" parent="1">
          <mxGeometry x="399" y="179" width="28" height="34" as="geometry" />
        </mxCell>
        <mxCell id="ZKPFellzhZSUirDBcYEt-32" value="a" style="text;html=1;align=center;verticalAlign=middle;resizable=0;points=[];autosize=1;strokeColor=none;fillColor=none;fontFamily=Helvetica;fontSize=18;fontColor=default;" vertex="1" parent="1">
          <mxGeometry x="111" y="268" width="28" height="34" as="geometry" />
        </mxCell>
        <mxCell id="ZKPFellzhZSUirDBcYEt-38" value="" style="edgeStyle=orthogonalEdgeStyle;rounded=0;orthogonalLoop=1;jettySize=auto;html=1;fontFamily=Helvetica;fontSize=18;fontColor=default;" edge="1" parent="1" source="ZKPFellzhZSUirDBcYEt-33" target="ZKPFellzhZSUirDBcYEt-37">
          <mxGeometry relative="1" as="geometry" />
        </mxCell>
        <mxCell id="ZKPFellzhZSUirDBcYEt-33" value="&lt;div&gt;&lt;br&gt;&lt;/div&gt;" style="ellipse;whiteSpace=wrap;html=1;aspect=fixed;hachureGap=4;fillColor=#dae8fc;strokeColor=#6c8ebf;rounded=0;fontSize=18;" vertex="1" parent="1">
          <mxGeometry x="167" y="608" width="80" height="80" as="geometry" />
        </mxCell>
        <mxCell id="ZKPFellzhZSUirDBcYEt-35" style="edgeStyle=orthogonalEdgeStyle;rounded=0;orthogonalLoop=1;jettySize=auto;html=1;fontSize=18;entryX=0;entryY=0.5;entryDx=0;entryDy=0;" edge="1" parent="1" target="ZKPFellzhZSUirDBcYEt-33">
          <mxGeometry relative="1" as="geometry">
            <mxPoint x="90" y="648" as="sourcePoint" />
            <mxPoint x="131" y="279" as="targetPoint" />
          </mxGeometry>
        </mxCell>
        <mxCell id="ZKPFellzhZSUirDBcYEt-40" value="" style="edgeStyle=orthogonalEdgeStyle;rounded=0;orthogonalLoop=1;jettySize=auto;html=1;fontFamily=Helvetica;fontSize=18;fontColor=default;" edge="1" parent="1" source="ZKPFellzhZSUirDBcYEt-37" target="ZKPFellzhZSUirDBcYEt-39">
          <mxGeometry relative="1" as="geometry" />
        </mxCell>
        <mxCell id="ZKPFellzhZSUirDBcYEt-66" style="edgeStyle=orthogonalEdgeStyle;rounded=0;orthogonalLoop=1;jettySize=auto;html=1;exitX=0.5;exitY=1;exitDx=0;exitDy=0;entryX=0.5;entryY=0;entryDx=0;entryDy=0;fontFamily=Helvetica;fontSize=18;fontColor=default;" edge="1" parent="1" source="ZKPFellzhZSUirDBcYEt-37" target="ZKPFellzhZSUirDBcYEt-47">
          <mxGeometry relative="1" as="geometry" />
        </mxCell>
        <mxCell id="ZKPFellzhZSUirDBcYEt-37" value="0" style="ellipse;whiteSpace=wrap;html=1;fontSize=18;fillColor=#dae8fc;strokeColor=#6c8ebf;hachureGap=4;rounded=0;" vertex="1" parent="1">
          <mxGeometry x="327" y="608" width="80" height="80" as="geometry" />
        </mxCell>
        <mxCell id="ZKPFellzhZSUirDBcYEt-42" value="" style="edgeStyle=orthogonalEdgeStyle;rounded=0;orthogonalLoop=1;jettySize=auto;html=1;fontFamily=Helvetica;fontSize=18;fontColor=default;" edge="1" parent="1" source="ZKPFellzhZSUirDBcYEt-39" target="ZKPFellzhZSUirDBcYEt-41">
          <mxGeometry relative="1" as="geometry" />
        </mxCell>
        <mxCell id="ZKPFellzhZSUirDBcYEt-68" style="edgeStyle=orthogonalEdgeStyle;rounded=0;orthogonalLoop=1;jettySize=auto;html=1;exitX=0;exitY=0;exitDx=0;exitDy=0;fontFamily=Helvetica;fontSize=18;fontColor=default;curved=1;" edge="1" parent="1" source="ZKPFellzhZSUirDBcYEt-39">
          <mxGeometry relative="1" as="geometry">
            <mxPoint x="529.0681610107422" y="607.3674011230469" as="targetPoint" />
            <Array as="points">
              <mxPoint x="499" y="564" />
              <mxPoint x="529" y="564" />
            </Array>
          </mxGeometry>
        </mxCell>
        <mxCell id="ZKPFellzhZSUirDBcYEt-39" value="00" style="ellipse;whiteSpace=wrap;html=1;fontSize=18;fillColor=#dae8fc;strokeColor=#6c8ebf;hachureGap=4;rounded=0;" vertex="1" parent="1">
          <mxGeometry x="487" y="608" width="80" height="80" as="geometry" />
        </mxCell>
        <mxCell id="ZKPFellzhZSUirDBcYEt-91" value="" style="edgeStyle=orthogonalEdgeStyle;rounded=0;orthogonalLoop=1;jettySize=auto;html=1;fontFamily=Helvetica;fontSize=18;fontColor=default;" edge="1" parent="1" source="ZKPFellzhZSUirDBcYEt-41" target="ZKPFellzhZSUirDBcYEt-90">
          <mxGeometry relative="1" as="geometry" />
        </mxCell>
        <mxCell id="ZKPFellzhZSUirDBcYEt-41" value="001" style="ellipse;whiteSpace=wrap;html=1;fontSize=18;fillColor=#dae8fc;strokeColor=#6c8ebf;hachureGap=4;rounded=0;" vertex="1" parent="1">
          <mxGeometry x="647" y="608" width="80" height="80" as="geometry" />
        </mxCell>
        <mxCell id="ZKPFellzhZSUirDBcYEt-43" value="" style="edgeStyle=orthogonalEdgeStyle;rounded=0;orthogonalLoop=1;jettySize=auto;html=1;fontFamily=Helvetica;fontSize=18;fontColor=default;exitX=0.5;exitY=1;exitDx=0;exitDy=0;" edge="1" parent="1" source="ZKPFellzhZSUirDBcYEt-33" target="ZKPFellzhZSUirDBcYEt-47">
          <mxGeometry relative="1" as="geometry">
            <mxPoint x="247.5" y="873" as="sourcePoint" />
            <Array as="points">
              <mxPoint x="207" y="873" />
            </Array>
          </mxGeometry>
        </mxCell>
        <mxCell id="ZKPFellzhZSUirDBcYEt-46" value="" style="edgeStyle=orthogonalEdgeStyle;rounded=0;orthogonalLoop=1;jettySize=auto;html=1;fontFamily=Helvetica;fontSize=18;fontColor=default;" edge="1" parent="1" source="ZKPFellzhZSUirDBcYEt-47" target="ZKPFellzhZSUirDBcYEt-49">
          <mxGeometry relative="1" as="geometry" />
        </mxCell>
        <mxCell id="ZKPFellzhZSUirDBcYEt-59" style="edgeStyle=orthogonalEdgeStyle;rounded=0;orthogonalLoop=1;jettySize=auto;html=1;exitX=0;exitY=1;exitDx=0;exitDy=0;fontFamily=Helvetica;fontSize=18;fontColor=default;curved=1;" edge="1" parent="1" source="ZKPFellzhZSUirDBcYEt-47">
          <mxGeometry relative="1" as="geometry">
            <mxPoint x="372.7045135498047" y="918.8825378417969" as="targetPoint" />
            <Array as="points">
              <mxPoint x="339" y="949" />
              <mxPoint x="373" y="949" />
            </Array>
          </mxGeometry>
        </mxCell>
        <mxCell id="ZKPFellzhZSUirDBcYEt-47" value="1" style="ellipse;whiteSpace=wrap;html=1;fontSize=18;fillColor=#dae8fc;strokeColor=#6c8ebf;hachureGap=4;rounded=0;" vertex="1" parent="1">
          <mxGeometry x="327.5" y="833" width="80" height="80" as="geometry" />
        </mxCell>
        <mxCell id="ZKPFellzhZSUirDBcYEt-48" value="" style="edgeStyle=orthogonalEdgeStyle;rounded=0;orthogonalLoop=1;jettySize=auto;html=1;fontFamily=Helvetica;fontSize=18;fontColor=default;" edge="1" parent="1" source="ZKPFellzhZSUirDBcYEt-49">
          <mxGeometry relative="1" as="geometry">
            <mxPoint x="647.5" y="873" as="targetPoint" />
          </mxGeometry>
        </mxCell>
        <mxCell id="ZKPFellzhZSUirDBcYEt-62" style="edgeStyle=orthogonalEdgeStyle;rounded=0;orthogonalLoop=1;jettySize=auto;html=1;exitX=0.5;exitY=1;exitDx=0;exitDy=0;entryX=1;entryY=1;entryDx=0;entryDy=0;fontFamily=Helvetica;fontSize=18;fontColor=default;" edge="1" parent="1" source="ZKPFellzhZSUirDBcYEt-49" target="ZKPFellzhZSUirDBcYEt-47">
          <mxGeometry relative="1" as="geometry">
            <Array as="points">
              <mxPoint x="528" y="986" />
              <mxPoint x="396" y="986" />
            </Array>
          </mxGeometry>
        </mxCell>
        <mxCell id="ZKPFellzhZSUirDBcYEt-49" value="10" style="ellipse;whiteSpace=wrap;html=1;fontSize=18;fillColor=#dae8fc;strokeColor=#6c8ebf;hachureGap=4;rounded=0;" vertex="1" parent="1">
          <mxGeometry x="487.5" y="833" width="80" height="80" as="geometry" />
        </mxCell>
        <mxCell id="ZKPFellzhZSUirDBcYEt-77" style="edgeStyle=orthogonalEdgeStyle;rounded=0;orthogonalLoop=1;jettySize=auto;html=1;exitX=1;exitY=0.5;exitDx=0;exitDy=0;fontFamily=Helvetica;fontSize=18;fontColor=default;" edge="1" parent="1" source="ZKPFellzhZSUirDBcYEt-50">
          <mxGeometry relative="1" as="geometry">
            <mxPoint x="828.4620412190754" y="790.3976745605469" as="targetPoint" />
          </mxGeometry>
        </mxCell>
        <mxCell id="ZKPFellzhZSUirDBcYEt-82" value="" style="edgeStyle=orthogonalEdgeStyle;rounded=0;orthogonalLoop=1;jettySize=auto;html=1;fontFamily=Helvetica;fontSize=18;fontColor=default;" edge="1" parent="1" source="ZKPFellzhZSUirDBcYEt-50" target="ZKPFellzhZSUirDBcYEt-81">
          <mxGeometry relative="1" as="geometry" />
        </mxCell>
        <mxCell id="ZKPFellzhZSUirDBcYEt-50" value="100" style="ellipse;whiteSpace=wrap;html=1;fontSize=18;fillColor=#dae8fc;strokeColor=#6c8ebf;hachureGap=4;rounded=0;" vertex="1" parent="1">
          <mxGeometry x="647.5" y="832" width="80" height="80" as="geometry" />
        </mxCell>
        <mxCell id="ZKPFellzhZSUirDBcYEt-51" value="0" style="text;html=1;align=center;verticalAlign=middle;resizable=0;points=[];autosize=1;strokeColor=none;fillColor=none;fontFamily=Helvetica;fontSize=18;fontColor=default;" vertex="1" parent="1">
          <mxGeometry x="273" y="604" width="28" height="34" as="geometry" />
        </mxCell>
        <mxCell id="ZKPFellzhZSUirDBcYEt-52" value="0" style="text;html=1;align=center;verticalAlign=middle;resizable=0;points=[];autosize=1;strokeColor=none;fillColor=none;fontFamily=Helvetica;fontSize=18;fontColor=default;" vertex="1" parent="1">
          <mxGeometry x="431" y="609" width="28" height="34" as="geometry" />
        </mxCell>
        <mxCell id="ZKPFellzhZSUirDBcYEt-53" value="1" style="text;html=1;align=center;verticalAlign=middle;resizable=0;points=[];autosize=1;strokeColor=none;fillColor=none;fontFamily=Helvetica;fontSize=18;fontColor=default;" vertex="1" parent="1">
          <mxGeometry x="594" y="612" width="28" height="34" as="geometry" />
        </mxCell>
        <mxCell id="ZKPFellzhZSUirDBcYEt-54" value="1" style="text;html=1;align=center;verticalAlign=middle;resizable=0;points=[];autosize=1;strokeColor=none;fillColor=none;fontFamily=Helvetica;fontSize=18;fontColor=default;" vertex="1" parent="1">
          <mxGeometry x="167" y="700" width="28" height="34" as="geometry" />
        </mxCell>
        <mxCell id="ZKPFellzhZSUirDBcYEt-55" value="0" style="text;html=1;align=center;verticalAlign=middle;resizable=0;points=[];autosize=1;strokeColor=none;fillColor=none;fontFamily=Helvetica;fontSize=18;fontColor=default;" vertex="1" parent="1">
          <mxGeometry x="429.5" y="827" width="28" height="34" as="geometry" />
        </mxCell>
        <mxCell id="ZKPFellzhZSUirDBcYEt-56" value="0" style="text;html=1;align=center;verticalAlign=middle;resizable=0;points=[];autosize=1;strokeColor=none;fillColor=none;fontFamily=Helvetica;fontSize=18;fontColor=default;" vertex="1" parent="1">
          <mxGeometry x="589.5" y="832" width="28" height="34" as="geometry" />
        </mxCell>
        <mxCell id="ZKPFellzhZSUirDBcYEt-60" value="1" style="text;html=1;align=center;verticalAlign=middle;resizable=0;points=[];autosize=1;strokeColor=none;fillColor=none;fontFamily=Helvetica;fontSize=18;fontColor=default;" vertex="1" parent="1">
          <mxGeometry x="340" y="956" width="28" height="34" as="geometry" />
        </mxCell>
        <mxCell id="ZKPFellzhZSUirDBcYEt-63" value="1" style="text;html=1;align=center;verticalAlign=middle;resizable=0;points=[];autosize=1;strokeColor=none;fillColor=none;fontFamily=Helvetica;fontSize=18;fontColor=default;" vertex="1" parent="1">
          <mxGeometry x="531" y="922" width="28" height="34" as="geometry" />
        </mxCell>
        <mxCell id="ZKPFellzhZSUirDBcYEt-67" value="1" style="text;html=1;align=center;verticalAlign=middle;resizable=0;points=[];autosize=1;strokeColor=none;fillColor=none;fontFamily=Helvetica;fontSize=18;fontColor=default;" vertex="1" parent="1">
          <mxGeometry x="331" y="697" width="28" height="34" as="geometry" />
        </mxCell>
        <mxCell id="ZKPFellzhZSUirDBcYEt-69" value="0" style="text;html=1;align=center;verticalAlign=middle;resizable=0;points=[];autosize=1;strokeColor=none;fillColor=none;fontFamily=Helvetica;fontSize=18;fontColor=default;" vertex="1" parent="1">
          <mxGeometry x="493" y="530" width="28" height="34" as="geometry" />
        </mxCell>
        <mxCell id="ZKPFellzhZSUirDBcYEt-74" value="" style="group" vertex="1" connectable="0" parent="1">
          <mxGeometry x="791" y="708" width="80" height="80" as="geometry" />
        </mxCell>
        <mxCell id="ZKPFellzhZSUirDBcYEt-75" value="" style="ellipse;whiteSpace=wrap;html=1;aspect=fixed;hachureGap=4;fillColor=#dae8fc;strokeColor=#6c8ebf;rounded=0;fontSize=18;" vertex="1" parent="ZKPFellzhZSUirDBcYEt-74">
          <mxGeometry width="80" height="80" as="geometry" />
        </mxCell>
        <mxCell id="ZKPFellzhZSUirDBcYEt-76" value="" style="ellipse;whiteSpace=wrap;html=1;aspect=fixed;hachureGap=4;rounded=0;fontSize=18;" vertex="1" parent="ZKPFellzhZSUirDBcYEt-74">
          <mxGeometry x="15" y="15" width="50" height="50" as="geometry" />
        </mxCell>
        <mxCell id="ZKPFellzhZSUirDBcYEt-78" value="1" style="text;html=1;align=center;verticalAlign=middle;resizable=0;points=[];autosize=1;strokeColor=none;fillColor=none;fontFamily=Helvetica;fontSize=18;fontColor=default;" vertex="1" parent="1">
          <mxGeometry x="835" y="836" width="28" height="34" as="geometry" />
        </mxCell>
        <mxCell id="ZKPFellzhZSUirDBcYEt-84" style="edgeStyle=orthogonalEdgeStyle;rounded=0;orthogonalLoop=1;jettySize=auto;html=1;fontFamily=Helvetica;fontSize=18;fontColor=default;" edge="1" parent="1" source="ZKPFellzhZSUirDBcYEt-81">
          <mxGeometry relative="1" as="geometry">
            <mxPoint x="862.4014536539714" y="780.7007344563801" as="targetPoint" />
          </mxGeometry>
        </mxCell>
        <mxCell id="ZKPFellzhZSUirDBcYEt-81" value="00" style="ellipse;whiteSpace=wrap;html=1;fontSize=18;fillColor=#dae8fc;strokeColor=#6c8ebf;hachureGap=4;rounded=0;" vertex="1" parent="1">
          <mxGeometry x="647.5" y="992" width="80" height="80" as="geometry" />
        </mxCell>
        <mxCell id="ZKPFellzhZSUirDBcYEt-83" value="0" style="text;html=1;align=center;verticalAlign=middle;resizable=0;points=[];autosize=1;strokeColor=none;fillColor=none;fontFamily=Helvetica;fontSize=18;fontColor=default;" vertex="1" parent="1">
          <mxGeometry x="684" y="920" width="28" height="34" as="geometry" />
        </mxCell>
        <mxCell id="ZKPFellzhZSUirDBcYEt-85" value="1" style="text;html=1;align=center;verticalAlign=middle;resizable=0;points=[];autosize=1;strokeColor=none;fillColor=none;fontFamily=Helvetica;fontSize=18;fontColor=default;" vertex="1" parent="1">
          <mxGeometry x="743" y="994" width="28" height="34" as="geometry" />
        </mxCell>
        <mxCell id="ZKPFellzhZSUirDBcYEt-86" style="edgeStyle=orthogonalEdgeStyle;rounded=0;orthogonalLoop=1;jettySize=auto;html=1;exitX=0;exitY=1;exitDx=0;exitDy=0;entryX=0.5;entryY=1;entryDx=0;entryDy=0;fontFamily=Helvetica;fontSize=18;fontColor=default;curved=1;" edge="1" parent="1" source="ZKPFellzhZSUirDBcYEt-81" target="ZKPFellzhZSUirDBcYEt-81">
          <mxGeometry relative="1" as="geometry">
            <Array as="points">
              <mxPoint x="659" y="1103" />
              <mxPoint x="688" y="1103" />
            </Array>
          </mxGeometry>
        </mxCell>
        <mxCell id="ZKPFellzhZSUirDBcYEt-87" value="0" style="text;html=1;align=center;verticalAlign=middle;resizable=0;points=[];autosize=1;strokeColor=none;fillColor=none;fontFamily=Helvetica;fontSize=18;fontColor=default;" vertex="1" parent="1">
          <mxGeometry x="658" y="1107" width="28" height="34" as="geometry" />
        </mxCell>
        <mxCell id="ZKPFellzhZSUirDBcYEt-88" style="edgeStyle=orthogonalEdgeStyle;rounded=0;orthogonalLoop=1;jettySize=auto;html=1;entryX=0.5;entryY=0;entryDx=0;entryDy=0;fontFamily=Helvetica;fontSize=18;fontColor=default;" edge="1" parent="1" target="ZKPFellzhZSUirDBcYEt-33">
          <mxGeometry relative="1" as="geometry">
            <mxPoint x="874" y="748" as="sourcePoint" />
            <Array as="points">
              <mxPoint x="940" y="748" />
              <mxPoint x="940" y="431" />
              <mxPoint x="207" y="431" />
            </Array>
          </mxGeometry>
        </mxCell>
        <mxCell id="ZKPFellzhZSUirDBcYEt-89" value="0,1" style="text;html=1;align=center;verticalAlign=middle;resizable=0;points=[];autosize=1;strokeColor=none;fillColor=none;fontFamily=Helvetica;fontSize=18;fontColor=default;" vertex="1" parent="1">
          <mxGeometry x="885" y="708" width="43" height="34" as="geometry" />
        </mxCell>
        <mxCell id="ZKPFellzhZSUirDBcYEt-97" style="edgeStyle=orthogonalEdgeStyle;rounded=0;orthogonalLoop=1;jettySize=auto;html=1;exitX=1;exitY=0.5;exitDx=0;exitDy=0;fontFamily=Helvetica;fontSize=18;fontColor=default;" edge="1" parent="1" source="ZKPFellzhZSUirDBcYEt-90">
          <mxGeometry relative="1" as="geometry">
            <mxPoint x="827.125" y="708" as="targetPoint" />
          </mxGeometry>
        </mxCell>
        <mxCell id="ZKPFellzhZSUirDBcYEt-99" style="edgeStyle=orthogonalEdgeStyle;rounded=0;orthogonalLoop=1;jettySize=auto;html=1;exitX=1;exitY=1;exitDx=0;exitDy=0;entryX=1;entryY=0.5;entryDx=0;entryDy=0;fontFamily=Helvetica;fontSize=18;fontColor=default;curved=1;" edge="1" parent="1" source="ZKPFellzhZSUirDBcYEt-90" target="ZKPFellzhZSUirDBcYEt-41">
          <mxGeometry relative="1" as="geometry">
            <Array as="points">
              <mxPoint x="747" y="516" />
              <mxPoint x="747" y="648" />
            </Array>
          </mxGeometry>
        </mxCell>
        <mxCell id="ZKPFellzhZSUirDBcYEt-90" value="10" style="ellipse;whiteSpace=wrap;html=1;fontSize=18;fillColor=#dae8fc;strokeColor=#6c8ebf;hachureGap=4;rounded=0;" vertex="1" parent="1">
          <mxGeometry x="647" y="448" width="80" height="80" as="geometry" />
        </mxCell>
        <mxCell id="ZKPFellzhZSUirDBcYEt-92" style="edgeStyle=orthogonalEdgeStyle;rounded=0;orthogonalLoop=1;jettySize=auto;html=1;exitX=0;exitY=1;exitDx=0;exitDy=0;entryX=0.5;entryY=1;entryDx=0;entryDy=0;fontFamily=Helvetica;fontSize=18;fontColor=default;curved=1;" edge="1" parent="1" source="ZKPFellzhZSUirDBcYEt-41" target="ZKPFellzhZSUirDBcYEt-41">
          <mxGeometry relative="1" as="geometry">
            <Array as="points">
              <mxPoint x="659" y="716" />
              <mxPoint x="687" y="716" />
            </Array>
          </mxGeometry>
        </mxCell>
        <mxCell id="ZKPFellzhZSUirDBcYEt-93" value="1" style="text;html=1;align=center;verticalAlign=middle;resizable=0;points=[];autosize=1;strokeColor=none;fillColor=none;fontFamily=Helvetica;fontSize=18;fontColor=default;" vertex="1" parent="1">
          <mxGeometry x="639" y="695" width="28" height="34" as="geometry" />
        </mxCell>
        <mxCell id="ZKPFellzhZSUirDBcYEt-94" value="0" style="text;html=1;align=center;verticalAlign=middle;resizable=0;points=[];autosize=1;strokeColor=none;fillColor=none;fontFamily=Helvetica;fontSize=18;fontColor=default;" vertex="1" parent="1">
          <mxGeometry x="654" y="574" width="28" height="34" as="geometry" />
        </mxCell>
        <mxCell id="ZKPFellzhZSUirDBcYEt-98" value="0" style="text;html=1;align=center;verticalAlign=middle;resizable=0;points=[];autosize=1;strokeColor=none;fillColor=none;fontFamily=Helvetica;fontSize=18;fontColor=default;" vertex="1" parent="1">
          <mxGeometry x="735" y="454" width="28" height="34" as="geometry" />
        </mxCell>
        <mxCell id="ZKPFellzhZSUirDBcYEt-100" value="1" style="text;html=1;align=center;verticalAlign=middle;resizable=0;points=[];autosize=1;strokeColor=none;fillColor=none;fontFamily=Helvetica;fontSize=18;fontColor=default;" vertex="1" parent="1">
          <mxGeometry x="745" y="531" width="28" height="34" as="geometry" />
        </mxCell>
      </root>
    </mxGraphModel>
  </diagram>
</mxfile>
